<svg width="104" height="139" viewBox="0 0 104 139" fill="none" xmlns="http://www.w3.org/2000/svg">
<line x1="1" y1="15" x2="1" y2="124" stroke="#27F09E" stroke-width="2"/>
<line x1="103" y1="16" x2="103" y2="124" stroke="#27F09E" stroke-width="2"/>
<path d="M52 29C65.8667 29 78.4552 27.5397 87.607 25.1602C92.1754 23.9724 95.944 22.5413 98.5944 20.9121C101.188 19.3175 103 17.3476 103 15C103 12.6524 101.188 10.6825 98.5944 9.0879C95.944 7.45867 92.1754 6.02758 87.607 4.83979C78.4552 2.46033 65.8667 1 52 1C38.1333 1 25.5448 2.46033 16.393 4.83979C11.8246 6.02758 8.05597 7.45867 5.40557 9.0879C2.8115 10.6825 1 12.6524 1 15C1 17.3476 2.8115 19.3175 5.40557 20.9121C8.05597 22.5413 11.8246 23.9724 16.393 25.1602C25.5448 27.5397 38.1333 29 52 29Z" stroke="#27F09E" stroke-width="2"/>
<path d="M52 138C65.8643 138 78.4496 136.596 87.5979 134.309C92.1643 133.167 95.9307 131.792 98.5796 130.226C101.161 128.7 103 126.798 103 124.5C103 122.202 101.161 120.3 98.5796 118.774C95.9307 117.208 92.1643 115.833 87.5979 114.691C78.4496 112.404 65.8643 111 52 111C38.1357 111 25.5504 112.404 16.4021 114.691C11.8357 115.833 8.06927 117.208 5.42042 118.774C2.83851 120.3 1 122.202 1 124.5C1 126.798 2.83851 128.7 5.42042 130.226C8.06927 131.792 11.8357 133.167 16.4021 134.309C25.5504 136.596 38.1357 138 52 138Z" stroke="#27F09E" stroke-width="2"/>
</svg>
